<svg width="48" height="48" viewBox="0 0 48 48" fill="none" xmlns="http://www.w3.org/2000/svg">
<path fill-rule="evenodd" clip-rule="evenodd" d="M24 8C15.1634 8 8 15.1634 8 24C8 32.8366 15.1634 40 24 40C27.7742 40 31.2383 38.6957 33.9739 36.5117L36.4696 39.6377C33.0508 42.3671 28.7133 44 24 44C12.9543 44 4 35.0457 4 24C4 12.9543 12.9543 4 24 4C35.0457 4 44 12.9543 44 24C44 28.1421 40.6421 31.5 36.5 31.5C34.1906 31.5 32.2925 30.1941 31.0486 28.6378C31.0431 28.6309 31.0377 28.6241 31.0323 28.6172C29.383 30.6792 26.8458 32 24 32C19.0294 32 15 27.9706 15 23C15 18.0294 19.0294 14 24 14C28.9706 14 33 18.0294 33 23C33 24.0169 33.4297 25.2102 34.1732 26.1404C34.92 27.0747 35.7718 27.5 36.5 27.5C38.433 27.5 40 25.933 40 24C40 15.1634 32.8366 8 24 8ZM29 23C29 20.2386 26.7614 18 24 18C21.2386 18 19 20.2386 19 23C19 25.7614 21.2386 28 24 28C26.7614 28 29 25.7614 29 23Z" fill="#3B3B3B"/>
</svg>
