<svg width="48" height="48" viewBox="0 0 48 48" fill="none" xmlns="http://www.w3.org/2000/svg">
<path fill-rule="evenodd" clip-rule="evenodd" d="M16 21.998C16 21.9987 16 21.9993 16 22L16.0037 23.8456L14.2198 24.0428C10.722 24.4294 8 27.3982 8 31C8 34.866 11.134 38 15 38H28V42H15C8.92487 42 4 37.0751 4 31C4 25.9346 7.42244 21.6708 12.0819 20.3917C12.9157 12.258 20.006 6 28.5 6C37.546 6 45 13.0979 45 22H41C41 15.4382 35.4703 10 28.5 10C21.5304 10 16.0011 15.4371 16 21.998ZM35.07 36.3127V26H39.07V36.3148L42.7279 32.6569L45.5564 35.4853L37.0711 43.9706L28.5858 35.4853L31.4142 32.6569L35.07 36.3127Z" fill="#3B3B3B"/>
</svg>
