<svg width="48" height="48" viewBox="0 0 48 48" fill="none" xmlns="http://www.w3.org/2000/svg">
<path fill-rule="evenodd" clip-rule="evenodd" d="M15 8C14.4477 8 14 8.44772 14 9V19C14 21.287 12.5197 22.9635 11.1372 24C12.5197 25.0365 14 26.713 14 29V39C14 39.5523 14.4477 40 15 40H19V44H15C12.2386 44 10 41.7614 10 39V29C10 28.507 9.60718 27.7804 8.50035 27.0313C7.99757 26.6911 7.44639 26.4196 6.94889 26.2375C6.41747 26.0429 6.08466 26 6 26V22C6.08466 22 6.41747 21.9571 6.94889 21.7625C7.44639 21.5804 7.99757 21.3089 8.50035 20.9687C9.60718 20.2196 10 19.493 10 19V9C10 6.23858 12.2386 4 15 4H19V8H15ZM33 8H29V4H33C35.7614 4 38 6.23858 38 9V19C38 19.493 38.3928 20.2196 39.4996 20.9687C40.0024 21.3089 40.5536 21.5804 41.0511 21.7625C41.5825 21.9571 41.9153 22 42 22V26C41.9153 26 41.5825 26.0429 41.0511 26.2375C40.5536 26.4196 40.0024 26.6911 39.4996 27.0313C38.3928 27.7804 38 28.507 38 29V39C38 41.7614 35.7614 44 33 44H29V40H33C33.5523 40 34 39.5523 34 39V29C34 26.713 35.4803 25.0365 36.8628 24C35.4803 22.9635 34 21.287 34 19V9C34 8.44772 33.5523 8 33 8Z" fill="#3B3B3B"/>
</svg>
