<svg width="48" height="48" viewBox="0 0 48 48" fill="none" xmlns="http://www.w3.org/2000/svg">
<path fill-rule="evenodd" clip-rule="evenodd" d="M9.0328 19C9.54739 11.182 16.0518 5 24 5C31.9482 5 38.4526 11.182 38.9672 19H40C41.6569 19 43 20.3431 43 22V28C43 29.6569 41.6569 31 40 31H38.7C37.6184 36.3291 33.7118 40.6296 28.6148 42.2762C27.1585 42.7466 25.6069 43 24 43H21C19.3431 43 18 41.6569 18 40V38C18 36.3431 19.3431 35 21 35H27C28.408 35 29.5894 35.9699 29.9126 37.2781C32.9727 35.3237 35 31.8969 35 28V20C35 13.9249 30.0751 9 24 9C17.9249 9 13 13.9249 13 20V31H8C6.34315 31 5 29.6569 5 28V22C5 20.3431 6.34315 19 8 19H9.0328Z" fill="#3B3B3B"/>
</svg>
