<svg width="48" height="48" viewBox="0 0 48 48" fill="none" xmlns="http://www.w3.org/2000/svg">
<path fill-rule="evenodd" clip-rule="evenodd" d="M33.2319 36.3103L39.733 42.8113L42.5614 39.9829L30.069 27.4905C30.6612 26.463 31 25.271 31 23.9999C31 20.1339 27.866 16.9999 24 16.9999C22.7289 16.9999 21.5369 17.3387 20.5094 17.9309L8.26672 5.68823L5.43829 8.51666L11.1727 14.2511C8.77273 16.4488 6.45639 19.4678 4.3001 22.9462L3.64685 23.9999L4.3001 25.0537C9.82885 33.9723 16.3603 38.9999 24 38.9999C27.25 38.9999 30.3352 38.0803 33.2319 36.3103ZM30.3015 33.3799L27.1662 30.2446C26.2154 30.7277 25.1395 30.9999 24 30.9999C20.134 30.9999 17 27.8659 17 23.9999C17 22.8604 17.2723 21.7845 17.7553 20.8337L14.0043 17.0827C12.1723 18.73 10.265 21.0792 8.36946 23.9981C13.3836 31.6651 18.6246 34.9999 24 34.9999C26.1466 34.9999 28.2418 34.4756 30.3015 33.3799ZM23.9205 26.9989C22.3268 26.9575 21.0424 25.6731 21.001 24.0794L23.9205 26.9989ZM26.9741 24.3956C26.9912 24.2661 27 24.1341 27 23.9999C27 22.3431 25.6568 20.9999 24 20.9999C23.8658 20.9999 23.7338 21.0087 23.6043 21.0258L26.9741 24.3956ZM23.9355 8.99994L24 8.99994C31.6397 8.99994 38.1711 14.0276 43.6998 22.9462L44.3531 23.9999L43.6998 25.0537C41.8727 28.0012 39.9486 30.5083 37.9183 32.5504L35.0817 29.7302C36.6217 28.1812 38.1396 26.2765 39.6292 23.9998C34.6155 16.3343 29.3749 12.9999 24 12.9999C22.8438 12.9999 21.7574 13.0044 20.7827 13.1618C19.8012 13.3204 19.2035 13.5962 18.8606 13.931L16.0664 11.0688C17.2599 9.90364 18.8049 9.42949 20.1447 9.21304C21.4651 8.99974 22.8497 8.99985 23.9355 8.99994Z" fill="#3B3B3B"/>
</svg>
