<svg width="48" height="48" viewBox="0 0 48 48" fill="none" xmlns="http://www.w3.org/2000/svg">
<path fill-rule="evenodd" clip-rule="evenodd" d="M4.3001 22.9462C9.82885 14.0276 16.3603 9 24 9C31.6397 9 38.1711 14.0276 43.6998 22.9462L44.3531 24L43.6998 25.0538C38.1711 33.9724 31.6397 39 24 39C16.3603 39 9.82885 33.9724 4.3001 25.0538L3.64685 24L4.3001 22.9462ZM8.37066 24C13.3844 31.6657 18.6251 35 24 35C29.3749 35 34.6155 31.6657 39.6293 24C34.6155 16.3343 29.3749 13 24 13C18.6251 13 13.3844 16.3343 8.37066 24ZM24 21C22.3431 21 21 22.3431 21 24C21 25.6569 22.3431 27 24 27C25.6568 27 27 25.6569 27 24C27 22.3431 25.6568 21 24 21ZM17 24C17 20.134 20.134 17 24 17C27.866 17 31 20.134 31 24C31 27.866 27.866 31 24 31C20.134 31 17 27.866 17 24Z" fill="#3B3B3B"/>
</svg>
