<svg width="48" height="48" viewBox="0 0 48 48" fill="none" xmlns="http://www.w3.org/2000/svg">
<path fill-rule="evenodd" clip-rule="evenodd" d="M22.587 14.3271C19.4788 11.2243 14.4379 11.2243 11.3297 14.3271C8.27416 17.3774 8.22432 22.2911 11.1797 25.4014L11.3385 25.5639L23.6526 37.8566C23.8441 38.0478 24.1559 38.0478 24.3474 37.8566L36.6614 25.5639L36.8202 25.4014C39.7757 22.2911 39.7258 17.3774 36.6703 14.3271C33.5621 11.2243 28.5212 11.2243 25.413 14.3271L24 15.7377L22.587 14.3271ZM24 10.2876C19.3231 6.87715 12.7273 7.28002 8.50375 11.4962C3.90379 16.0882 3.83311 23.4904 8.29216 28.1694L8.30077 28.1785L8.49493 28.3772L20.8266 40.6875C22.5796 42.4375 25.4204 42.4375 27.1734 40.6875L39.5051 28.3772L39.6992 28.1785L39.7078 28.1694C44.1669 23.4904 44.0962 16.0882 39.4962 11.4962C35.2727 7.28002 28.6769 6.87715 24 10.2876Z" fill="#3B3B3B"/>
</svg>
