<svg width="48" height="48" viewBox="0 0 48 48" fill="none" xmlns="http://www.w3.org/2000/svg">
<path fill-rule="evenodd" clip-rule="evenodd" d="M4.18854 21.2426H1.78308L6.00002 27.6301L10.217 21.2426H8.23673C9.54344 13.7201 16.1037 8 24 8C32.8366 8 40 15.1634 40 24C40 32.8366 32.8366 40 24 40C18.4367 40 13.5353 37.1623 10.6655 32.846L7.33456 35.0607C10.9143 40.4447 17.0415 44 24 44C35.0457 44 44 35.0457 44 24C44 12.9543 35.0457 4 24 4C13.8898 4 5.53178 11.5018 4.18854 21.2426ZM25 24V17H21V28H32V24H25Z" fill="#3B3B3B"/>
</svg>
