<svg width="48" height="48" viewBox="0 0 48 48" fill="none" xmlns="http://www.w3.org/2000/svg">
<path fill-rule="evenodd" clip-rule="evenodd" d="M43.0004 5.00012L28.0009 5.00012L28.0009 9.00012L36.1705 9.00012L19.4079 25.7637L22.2364 28.592L39.0001 11.8274L38.9998 20.0001L42.9998 20.0002L43.0004 5.00012ZM22 9L8.99998 9L8.99998 39L39 39L39 26L43 26L43 40C43 41.6569 41.6568 43 40 43L7.99999 43C6.34313 43 4.99998 41.6569 4.99998 40L4.99998 8C4.99998 6.34315 6.34313 5 7.99998 5L22 5L22 9Z" fill="#3B3B3B"/>
</svg>
