<svg width="48" height="48" viewBox="0 0 48 48" fill="none" xmlns="http://www.w3.org/2000/svg">
<path fill-rule="evenodd" clip-rule="evenodd" d="M5 24C5 13.5066 13.5066 5 24 5C32.9562 5 40.4606 11.1949 42.471 19.5311L38.5825 20.4689C36.9953 13.8876 31.066 9 24 9C15.7157 9 9 15.7157 9 24V39H21V43H5V24ZM25 22H13V18H25V22ZM30.6694 27.841L40.159 37.3306C41.5951 34.6775 41.192 31.2925 38.9497 29.0503C36.7075 26.808 33.3225 26.4049 30.6694 27.841ZM37.3306 40.159L27.841 30.6694C26.4049 33.3225 26.808 36.7075 29.0503 38.9497C31.2925 41.192 34.6775 41.5951 37.3306 40.159ZM26.2218 26.2218C30.5176 21.9261 37.4824 21.9261 41.7782 26.2218C46.0739 30.5176 46.0739 37.4824 41.7782 41.7782C37.4824 46.0739 30.5176 46.0739 26.2218 41.7782C21.9261 37.4824 21.9261 30.5176 26.2218 26.2218ZM19 31H13V27H19V31Z" fill="#3B3B3B"/>
</svg>
