<svg width="48" height="48" viewBox="0 0 48 48" fill="none" xmlns="http://www.w3.org/2000/svg">
<path fill-rule="evenodd" clip-rule="evenodd" d="M19.195 7.00103C20.5591 5.54605 23 6.51132 23 8.5057L23 14.9999C34.598 14.9999 44 24.402 44 35.9999C44 36.1655 43.9981 36.3305 43.9943 36.4952C43.9536 38.2507 41.8452 39.1084 40.5883 37.8943C36.8085 34.243 31.6683 31.9999 26 31.9999C24.9805 31.9999 23.979 32.0724 23 32.2124V39.4942C23 41.4886 20.5591 42.4538 19.195 40.9989L5.18212 26.0518C4.10026 24.8978 4.10027 23.1021 5.18212 21.9481L19.195 7.00103ZM19 13.0575L8.74146 23.9999L19 34.9424V28.9398L20.5671 28.5924C22.3181 28.2042 24.1364 27.9999 26 27.9999C30.9797 27.9999 35.6214 29.4573 39.5188 31.9672C37.7082 24.525 30.9993 18.9999 23 18.9999C22.3941 18.9999 21.7964 19.0316 21.2081 19.0931L19 19.3241V13.0575Z" fill="#3B3B3B"/>
</svg>
