<svg width="48" height="48" viewBox="0 0 48 48" fill="none" xmlns="http://www.w3.org/2000/svg">
<path fill-rule="evenodd" clip-rule="evenodd" d="M10.2426 11.4852L15.8995 5.82837L18.7279 8.6568L10.2426 17.1421L4.58579 11.4852L7.41421 8.6568L10.2426 11.4852ZM43 12.9999H21V8.99993H43V12.9999ZM10.2426 24.4852L15.8995 18.8284L18.7279 21.6568L10.2426 30.1421L4.58579 24.4852L7.41421 21.6568L10.2426 24.4852ZM43 26.9999H21V22.9999H43V26.9999ZM10.2426 37.4852L15.8995 31.8284L18.7279 34.6568L10.2426 43.1421L4.58578 37.4852L7.41421 34.6568L10.2426 37.4852ZM43 40.9999H21V36.9999H43V40.9999Z" fill="#3B3B3B"/>
</svg>
