<svg width="48" height="48" viewBox="0 0 48 48" fill="none" xmlns="http://www.w3.org/2000/svg">
<path fill-rule="evenodd" clip-rule="evenodd" d="M11.5 9C10.1193 9 9 10.1193 9 11.5C9 12.8807 10.1193 14 11.5 14C12.4901 14 13.3497 13.4246 13.7554 12.581C14.0081 12.0555 14.0678 11.4312 13.9184 10.8622C13.6368 9.78916 12.658 9 11.5 9ZM5 11.5C5 7.91015 7.91015 5 11.5 5C14.5208 5 17.0557 7.05891 17.7874 9.84682C18.0038 10.6715 18.0536 11.5324 17.9402 12.3729L31.7902 19.0209C32.973 17.7774 34.6447 17.0001 36.5 17.0001C40.0899 17.0001 43 19.9102 43 23.5001C43 27.0899 40.0899 30.0001 36.5 30.0001C34.7197 30.0001 33.1083 29.2841 31.9358 28.1276L17.9052 35.4236C18.5015 39.163 15.6364 43 11.5 43C7.91015 43 5 40.0899 5 36.5C5 32.9101 7.91015 30 11.5 30C13.2803 30 14.8917 30.716 16.0641 31.8724L30.0895 24.5793C30.0306 24.2278 30 23.8671 30 23.5001C30 23.2043 30.0199 22.9126 30.0584 22.6266L16.2098 15.9792C15.027 17.2227 13.3553 18 11.5 18C7.91015 18 5 15.0899 5 11.5ZM36.5 21.0001C35.5099 21.0001 34.6503 21.5755 34.2446 22.4191C34.0885 22.7438 34 23.1088 34 23.5001C34 23.9197 34.1018 24.3097 34.2804 24.6524C34.6999 25.4575 35.5382 26.0001 36.5 26.0001C37.8807 26.0001 39 24.8808 39 23.5001C39 22.1194 37.8807 21.0001 36.5 21.0001ZM11.5 34C10.1193 34 9 35.1193 9 36.5C9 37.8807 10.1193 39 11.5 39C13.3116 39 14.5457 36.9331 13.7196 35.3477C13.3001 34.5426 12.4618 34 11.5 34Z" fill="#3B3B3B"/>
</svg>
