<svg width="48" height="48" viewBox="0 0 48 48" fill="none" xmlns="http://www.w3.org/2000/svg">
<path fill-rule="evenodd" clip-rule="evenodd" d="M20.7582 6.02347C21.6752 4.16536 24.3248 4.16535 25.2418 6.02347L29.9121 15.4864L40.3551 17.0039C42.4056 17.3018 43.2244 19.8218 41.7406 21.2681L34.184 28.634L35.9679 39.0348C36.3182 41.0771 34.1746 42.6345 32.3405 41.6702L23 36.7597L13.6595 41.6702C11.8254 42.6345 9.68185 41.0771 10.0321 39.0348L11.816 28.634L4.25938 21.2681C2.77559 19.8218 3.59436 17.3018 5.64491 17.0039L16.0879 15.4864L20.7582 6.02347ZM23 10.5192L19.3259 17.9639C18.9617 18.7017 18.2578 19.2131 17.4435 19.3315L9.22785 20.5253L15.1728 26.3201C15.762 26.8945 16.0308 27.722 15.8917 28.5329L14.4883 36.7154L21.8367 32.8522C22.565 32.4693 23.435 32.4693 24.1634 32.8522L31.5117 36.7154L30.1083 28.5329C29.9692 27.722 30.238 26.8945 30.8273 26.3201L36.7722 20.5253L28.5565 19.3315C27.7422 19.2131 27.0383 18.7017 26.6742 17.9639L23 10.5192Z" fill="#3B3B3B"/>
</svg>
