<svg width="48" height="48" viewBox="0 0 48 48" fill="none" xmlns="http://www.w3.org/2000/svg">
<path fill-rule="evenodd" clip-rule="evenodd" d="M13.3963 13.3908C15.6333 11.1538 18.3955 9.77341 21.2849 9.24409L20.5641 5.30957C16.9019 5.98047 13.397 7.7332 10.5679 10.5623C3.14794 17.9823 3.14794 30.0124 10.5679 37.4324L7.15369 40.8466H16.8105V31.1898L13.3963 34.604C7.53846 28.7461 7.53846 19.2486 13.3963 13.3908ZM40.8486 7.15167H31.1918V16.8085L34.606 13.3943C40.4638 19.2522 40.4638 28.7496 34.606 34.6075C32.369 36.8445 29.6068 38.2249 26.7174 38.7542L27.4382 42.6887C31.1004 42.0178 34.6053 40.2651 37.4344 37.4359C44.8544 30.016 44.8544 17.9858 37.4344 10.5659L40.8486 7.15167Z" fill="#3B3B3B"/>
</svg>
