<svg width="48" height="48" viewBox="0 0 48 48" fill="none" xmlns="http://www.w3.org/2000/svg">
<path fill-rule="evenodd" clip-rule="evenodd" d="M13.4624 9L7.73516 27L19.9067 27L17.4998 33.2902C16.857 34.97 17.4144 36.8723 18.8622 37.9395L20.6095 39.2275L30.0152 27H32L32 9L13.4624 9ZM9.87244 7.09039C10.2686 5.84545 11.4248 5 12.7312 5L36 5L36 31H31.9848L23.1826 42.4429C22.187 43.7372 20.3391 43.9975 19.0247 43.0285L16.4888 41.1592C13.5932 39.0248 12.4784 35.2203 13.7639 31.8606L14.0933 31L7.73516 31C5.02794 31 3.10262 28.367 3.92346 25.7872L9.87244 7.09039ZM43 5V31H39V5H43Z" fill="#3B3B3B"/>
</svg>
