<svg width="48" height="48" viewBox="0 0 48 48" fill="none" xmlns="http://www.w3.org/2000/svg">
<path fill-rule="evenodd" clip-rule="evenodd" d="M34.3375 39.4139L40.0648 21.4139L27.8933 21.4139L30.3002 15.1238C30.943 13.444 30.3856 11.5417 28.9378 10.4745L27.1905 9.18648L17.7848 21.4139H15.8L15.8 39.4139H34.3375ZM37.9275 41.3236C37.5314 42.5685 36.3752 43.4139 35.0688 43.4139H11.8L11.8 17.4139H15.8152L24.6174 5.97108C25.613 4.67679 27.4609 4.41649 28.7753 5.38539L31.3112 7.25471C34.2068 9.38913 35.3216 13.1937 34.036 16.5533L33.7067 17.4139L40.0648 17.4139C42.772 17.4139 44.6974 20.047 43.8765 22.6268L37.9275 41.3236ZM4.79999 43.4139V17.4139H8.79999V43.4139H4.79999Z" fill="#3B3B3B"/>
</svg>
