<svg width="48" height="48" viewBox="0 0 48 48" fill="none" xmlns="http://www.w3.org/2000/svg">
<path fill-rule="evenodd" clip-rule="evenodd" d="M4.09875 23H0.17157L6 28.8284L11.8284 23H8.12378C9.10798 15.1074 15.8408 9 24 9C30.1012 9 35.4079 12.4143 38.1084 17.4458L41.6329 15.5542C38.2635 9.27625 31.6326 5 24 5C13.6293 5 5.1022 12.8934 4.09875 23ZM21.614 16H26.386L32.8727 33.2978L29.1273 34.7022L26.989 29H21.011L18.8727 34.7022L15.1273 33.2978L21.614 16ZM22.511 25H25.489L24 21.0293L22.511 25ZM42 21.1716L47.8284 27H43.9012C42.8978 37.1066 34.3707 45 24 45C16.3674 45 9.73654 40.7237 6.36714 34.4458L9.89161 32.5542C12.5921 37.5857 17.8988 41 24 41C32.1592 41 38.892 34.8926 39.8762 27H36.1716L42 21.1716Z" fill="#3B3B3B"/>
</svg>
