<svg width="48" height="48" viewBox="0 0 48 48" fill="none" xmlns="http://www.w3.org/2000/svg">
<path fill-rule="evenodd" clip-rule="evenodd" d="M13 15C13 8.92487 17.9249 4 24 4C30.0751 4 35 8.92487 35 15V21C35 27.0751 30.0751 32 24 32C17.9249 32 13 27.0751 13 21V15ZM24 8C20.134 8 17 11.134 17 15V21C17 24.866 20.134 28 24 28C27.866 28 31 24.866 31 21V15C31 11.134 27.866 8 24 8ZM9 21V22C9 29.732 15.268 36 23 36H25C32.732 36 39 29.732 39 22V21H43V22C43 31.6056 35.476 39.4538 26 39.9727V44H22V39.9727C12.524 39.4538 5 31.6056 5 22V21H9Z" fill="#3B3B3B"/>
</svg>
